# xmcd
#
# Track frame offsets:
#	150
#	11423
#	26097
#	41851
#	56732
#	71619
#	82436
#	94546
#	105263
#	119154
#	131548
#	141194
#	153337
#
# Disc length: 2183 seconds
#
# Revision: 1
# Processed by: cddbd v1.5.1PL0 Copyright (c) Steve Scherf et al.
# Submitted via: audiograbber 1.83.01
#
DISCID=b508850d
DTITLE=Big Tom - The Same Way You Came In
DYEAR=1900
DGENRE=
TTITLE0=The Same Way You Came In
TTITLE1=Bright Silvery Light Of The Moon
TTITLE2=Drinkin Them Beer
TTITLE3=You're The Perfect Picture
TTITLE4=I Would Like To See You Again
TTITLE5=Hide
TTITLE6=She Sure Does Make It Hard To Go
TTITLE7=If I'm A Fool For Leaving
TTITLE8=Bed Of Roses
TTITLE9=Rollin Stone
TTITLE10=Drunk Again
TTITLE11=Heaven Holds All My Treasures
TTITLE12=Give A Little
EXTD=
EXTT0=
EXTT1=
EXTT2=
EXTT3=
EXTT4=
EXTT5=
EXTT6=
EXTT7=
EXTT8=
EXTT9=
EXTT10=
EXTT11=
EXTT12=
PLAYORDER=
